<?xml version="1.0" encoding="UTF-8"?>
<svg width="128px" height="20px" viewBox="0 0 128 20" version="1.1" xmlns="http://www.w3.org/2000/svg" xmlns:xlink="http://www.w3.org/1999/xlink">
    <!-- Generator: Sketch 52.6 (67491) - http://www.bohemiancoding.com/sketch -->
    <title>logo</title>
    <desc>Created with Sketch.</desc>
    <g id="logo" stroke="none" stroke-width="1" fill="none" fill-rule="evenodd">
        <g id="Layer1000">
            <polygon id="path2" fill="#1B1918" points="31.9113 8.359 30.4971 8.359 30.4971 1.4647 27.1029 1.4647 27.1029 8.359 25.6886 8.359 25.6886 0.0505 31.9113 0.0505"></polygon>
            <path d="M45.0591,8.359 C42.7684,8.359 40.9049,6.4954 40.9049,4.2047 C40.9049,1.9141 42.7684,0.0505 45.0591,0.0505 C47.3498,0.0505 49.2133,1.9141 49.2133,4.2047 C49.2133,6.4954 47.3498,8.359 45.0591,8.359 Z M45.0591,1.4647 C43.5483,1.4647 42.3191,2.6939 42.3191,4.2047 C42.3191,5.7159 43.5483,6.9447 45.0591,6.9447 C46.5699,6.9447 47.7991,5.7159 47.7991,4.2047 C47.7991,2.6939 46.5699,1.4647 45.0591,1.4647 Z" id="path4" fill="#1B1918"></path>
            <polygon id="path6" fill="#1B1918" points="78.9983 0.0505 78.9983 6.9447 76.3531 6.9447 76.3531 0.0505 74.9388 0.0505 74.9388 6.9447 72.2933 6.9447 72.2933 0.0505 70.8791 0.0505 70.8791 8.359 80.4125 8.359 80.4125 0.0505"></polygon>
            <polygon id="path8" fill="#1B1918" points="110.3064 0.0505 110.3064 3.3984 106.818 3.3984 106.818 0.0505 105.4038 0.0505 105.4038 8.359 106.818 8.359 106.818 4.8126 110.3064 4.8126 110.3064 8.359 111.7206 8.359 111.7206 0.0505"></polygon>
            <polygon id="path10" fill="#1B1918" points="102.5095 0.0505 102.5095 3.3984 99.0212 3.3984 99.0212 0.0505 97.6069 0.0505 97.6069 8.359 99.0212 8.359 99.0212 4.8126 102.5095 4.8126 102.5095 8.359 103.9238 8.359 103.9238 0.0505"></polygon>
            <polygon id="path12" fill="#1B1918" points="96.1655 1.4647 96.1655 0.0505 90.1784 0.0505 90.1784 8.359 96.1655 8.359 96.1655 6.9447 91.5926 6.9447 91.5926 4.8126 95.4617 4.8126 95.4617 3.3984 91.5926 3.3984 91.5926 1.4647"></polygon>
            <polygon id="path14" fill="#1B1918" points="69.0661 8.359 67.6518 8.359 67.6518 0.0505 69.0661 0.0505"></polygon>
            <path d="M121.7041,0.0505 L121.7041,5.4548 L123.2928,5.4548 L121.7041,8.359 L123.2206,8.359 L124.8093,5.4548 L126.5742,5.4548 L126.5742,8.359 L127.9884,8.359 L127.9884,0.0505 L121.7041,0.0505 Z M126.5742,4.0405 L123.1184,4.0405 L123.1184,1.4647 L126.5742,1.4647 L126.5742,4.0405 Z" id="path16" fill="#1B1918"></path>
            <path d="M121.7041,10.7522 L121.7041,16.1566 L123.2928,16.1566 L121.7041,19.0611 L123.2206,19.0611 L124.8093,16.1566 L126.5742,16.1566 L126.5742,19.0611 L127.9884,19.0611 L127.9884,10.7522 L121.7041,10.7522 Z M126.5742,14.7423 L123.1184,14.7423 L123.1184,12.1665 L126.5742,12.1665 L126.5742,14.7423 Z" id="path18" fill="#1B1918"></path>
            <polygon id="path20" fill="#1B1918" points="57.4302 0.0505 57.427 0.0505 57.427 0.0537 54.7033 2.7774 51.9792 0.0537 51.9792 0.0505 51.976 0.0505 50.5653 0.0505 50.5653 8.359 51.9792 8.359 51.9792 2.0538 54.6941 4.7687 54.7033 4.7595 54.7121 4.7687 57.427 2.0538 57.427 8.359 58.8413 8.359 58.8413 0.0505"></polygon>
            <polygon id="path22" fill="#1B1918" points="80.4744 10.7522 73.8211 10.7522 73.8211 12.1665 76.4405 12.1665 76.4405 19.0611 77.8547 19.0611 77.8547 12.1665 80.4744 12.1665"></polygon>
            <polygon id="path24" fill="#1B1918" points="47.3993 10.7522 40.7456 10.7522 40.7456 12.1665 43.3653 12.1665 43.3653 19.0611 44.7796 19.0611 44.7796 12.1665 47.3993 12.1665"></polygon>
            <path d="M51.4495,19.0611 C49.1589,19.0611 47.2953,17.1971 47.2953,14.9065 C47.2953,12.6158 49.1589,10.7522 51.4495,10.7522 C53.7402,10.7522 55.6038,12.6158 55.6038,14.9065 C55.6038,17.1971 53.7402,19.0611 51.4495,19.0611 Z M51.4495,12.1665 C49.9387,12.1665 48.7095,13.3957 48.7095,14.9065 C48.7095,16.4177 49.9387,17.6469 51.4495,17.6469 C52.9603,17.6469 54.1895,16.4177 54.1895,14.9065 C54.1895,13.3957 52.9603,12.1665 51.4495,12.1665 Z" id="path26" fill="#1B1918"></path>
            <polygon id="path28" fill="#1B1918" points="111.381 17.6469 111.381 10.7522 109.9667 10.7522 109.9667 17.6469 106.5375 17.6469 106.5375 10.7522 105.1232 10.7522 105.1232 19.0611 111.0983 19.0611 111.0983 20.2984 112.5125 20.2984 112.5125 17.6469"></polygon>
            <path d="M30.7236,10.7522 L28.2309,10.7522 L28.2309,10.7529 L28.2287,10.7522 L24.9997,19.0611 L26.5162,19.0611 L27.3976,16.7934 L30.7236,16.7934 L30.7236,19.0611 L32.1378,19.0611 L32.1378,12.1665 L32.1378,10.7522 L30.7236,10.7522 Z M30.7236,15.3792 L27.9471,15.3792 L29.1957,12.1665 L30.7236,12.1665 L30.7236,15.3792 Z" id="path30" fill="#1B1918"></path>
            <path d="M68.8042,10.7522 L68.8042,10.7529 L68.8021,10.7522 L65.5731,19.0611 L67.0896,19.0611 L67.971,16.7934 L71.2969,16.7934 L71.2969,19.0611 L72.7112,19.0611 L72.7112,10.7522 L68.8042,10.7522 Z M71.2969,15.3792 L68.5205,15.3792 L69.7691,12.1665 L71.2969,12.1665 L71.2969,15.3792 Z" id="path32" fill="#1B1918"></path>
            <path d="M99.6864,10.7522 L99.6864,10.7529 L99.6844,10.7522 L96.4554,19.0611 L97.9719,19.0611 L98.8533,16.7934 L102.1793,16.7934 L102.1793,19.0611 L103.5935,19.0611 L103.5935,10.7522 L99.6864,10.7522 Z M102.1791,15.3792 L99.4026,15.3792 L100.6512,12.1665 L102.1791,12.1665 L102.1791,15.3792 Z" id="path34" fill="#1B1918"></path>
            <path d="M116.1194,0.0505 L116.1194,0.0512 L116.1174,0.0505 L112.8881,8.359 L114.4045,8.359 L115.2859,6.0913 L118.6119,6.0913 L118.6119,8.359 L120.0261,8.359 L120.0261,0.0505 L116.1194,0.0505 Z M118.6121,4.6771 L115.836,4.6771 L117.0843,1.4647 L118.6121,1.4647 L118.6121,4.6771 Z" id="path36" fill="#1B1918"></path>
            <polygon id="path38" fill="#1B1918" points="84.9068 0.0505 84.9068 0.0512 84.9048 0.0505 81.6758 8.359 83.1922 8.359 85.8718 1.4647 87.3996 1.4647 87.3996 8.359 88.8138 8.359 88.8138 0.0505"></polygon>
            <polygon id="path40" fill="#1B1918" points="63.5814 10.7052 63.5783 10.7052 63.5783 10.7084 60.8545 13.4325 58.1304 10.7084 58.1304 10.7052 58.1272 10.7052 56.7162 10.7052 56.7162 19.014 58.1304 19.014 58.1304 12.7085 60.8453 15.4234 60.8545 15.4146 60.8634 15.4234 63.5783 12.7085 63.5783 19.014 64.9925 19.014 64.9925 10.7052"></polygon>
            <path d="M38.9245,14.0987 L38.9245,10.7522 L33.8913,10.7522 L33.8913,19.0611 L40.3384,19.0611 L40.3384,14.1005 L40.3384,14.0987 L38.9245,14.0987 Z M35.3056,12.1665 L37.5099,12.1665 L37.5099,14.1005 L35.3056,14.1005 L35.3056,12.1665 Z M38.9245,17.6469 L35.3056,17.6469 L35.3056,15.5147 L38.9245,15.5147 L38.9245,17.6469 Z" id="path42" fill="#1B1918"></path>
            <polygon id="path44" fill="#1B1918" points="94.3574 14.1005 94.3574 10.7883 90.0195 10.7883 90.0195 12.2026 92.9432 12.2026 92.9432 14.1005 91.1037 14.1005 91.1037 15.5147 94.3525 15.5147 94.3525 17.6469 89.3193 17.6469 89.3193 19.0611 95.7667 19.0611 95.7667 14.1005"></polygon>
            <path d="M0.5063,0.0505 L0.5063,19.0657 L7.6118,19.0657 L8.7663,16.5309 L15.162,16.5309 L16.3169,19.0657 L19.3488,19.0657 L19.3488,0.0505 L0.5063,0.0505 Z M5.8674,16.2393 L3.3326,16.2393 L3.3326,2.8768 L11.955,2.8768 L5.8674,16.2393 Z M10.0234,13.7718 L11.9642,9.5114 L13.9052,13.7718 L10.0234,13.7718 Z M16.5221,12.8614 L11.9737,2.8768 L16.5221,2.8768 L16.5221,12.8614 Z" id="path46" fill="#0095D8"></path>
            <polygon id="path48" fill="#1B1918" points="118.6945 10.7522 118.6945 13.332 114.725 15.9177 114.725 10.7522 113.3107 10.7522 113.3107 19.0611 114.725 19.0611 114.725 17.6058 118.6945 15.0201 118.6945 19.0611 120.1087 19.0611 120.1087 10.7522"></polygon>
            <polygon id="path50" fill="#1B1918" points="86.7828 10.7522 86.7828 13.332 82.8136 15.9177 82.8136 10.7522 81.3993 10.7522 81.3993 19.0611 82.8136 19.0611 82.8136 17.6058 86.7828 15.0201 86.7828 19.0611 88.197 19.0611 88.197 10.7522"></polygon>
            <path d="M33.5216,0.0505 L33.5216,8.359 L34.9362,8.359 L34.9362,6.0913 L39.8062,6.0913 L39.8062,0.0505 L33.5216,0.0505 Z M34.9362,4.6771 L34.9362,1.4647 L38.392,1.4647 L38.392,4.6771 L34.9362,4.6771 Z" id="path52" fill="#1B1918"></path>
            <path d="M62.0374,2.3181 L62.0374,0.0505 L60.6228,0.0505 L60.6228,8.359 L66.9074,8.359 L66.9074,2.3181 L62.0374,2.3181 Z M62.0374,6.9447 L62.0374,3.7324 L65.4932,3.7324 L65.4932,6.9447 L62.0374,6.9447 Z" id="path54" fill="#1B1918"></path>
        </g>
    </g>
</svg>