<?xml version="1.0" encoding="UTF-8"?>
<svg width="32px" height="32px" viewBox="0 0 32 32" version="1.1" xmlns="http://www.w3.org/2000/svg" xmlns:xlink="http://www.w3.org/1999/xlink">
    <title>29521626-03C8-4534-A91C-FF3FB63F01F0</title>
    <defs>
        <filter id="filter-1">
            <feColorMatrix in="SourceGraphic" type="matrix" values="0 0 0 0 0.847000 0 0 0 0 0.847000 0 0 0 0 0.847000 0 0 0 1.000000 0"></feColorMatrix>
        </filter>
    </defs>
    <g id="Page-1" stroke="none" stroke-width="1" fill="none" fill-rule="evenodd" opacity="0.8">
        <g id="4.-Icons-/-VK" transform="translate(-1560.000000, -6129.000000)" filter="url(#filter-1)">
            <g transform="translate(1560.000000, 6129.000000)">
                <path d="M25.3333333,2.66666667 C27.5424723,2.66666667 29.3333333,4.45752767 29.3333333,6.66666667 L29.3333333,25.3333333 C29.3333333,27.5424723 27.5424723,29.3333333 25.3333333,29.3333333 L6.66666667,29.3333333 C4.45752767,29.3333333 2.66666667,27.5424723 2.66666667,25.3333333 L2.66666667,6.66666667 C2.66666667,4.45752767 4.45752767,2.66666667 6.66666667,2.66666667 L25.3333333,2.66666667 Z M16.0382143,10.6666667 C15.5059912,10.6693283 15.0703383,10.6708527 14.6481294,10.6717116 L14.0145083,10.67256 C13.799735,10.6727158 13.5779319,10.6727641 13.3387083,10.6727641 C12.5383647,10.6727641 12.0886709,11.0189136 12.074383,11.2247191 C12.0613178,11.4128872 12.4695594,11.5637507 12.7179359,11.7160196 C12.957683,11.8743068 13.1735487,12.3774257 13.1735487,12.7168165 L13.1735487,12.7168165 L13.1735487,15.6767492 C13.1735487,15.9580904 13.1136029,16.1545135 12.9001811,16.3378816 C12.7985156,16.4252315 12.6777054,16.4478339 12.5470814,16.4470597 C12.4413738,16.4464478 12.2986484,16.4258003 12.1996766,16.289358 C11.1454797,14.8360465 11.1421227,14.6568069 9.66533019,11.7281503 C9.59370394,11.5861063 9.52156228,11.4350681 9.37487702,11.3217658 C9.22819125,11.2084619 9.01145125,11.1337374 8.66298175,11.1337374 C7.4759574,11.1337374 6.7439865,11.1519242 5.96347573,11.1519242 C5.22468674,11.1519242 5.29500449,11.6357633 5.39396013,11.8555146 C6.27969335,13.8224494 7.1792571,15.6992677 8.21306434,17.6055481 C9.42374047,19.8379643 10.5309454,21.1793498 12.393312,22.1424941 C12.8255901,22.3660514 13.6053603,22.5974018 14.5062164,22.5974018 L14.5062164,22.5974018 L16.4197904,22.5974018 C16.6657301,22.5974018 17.0747335,22.3897699 17.0747335,22.1121669 L17.0747335,22.1121669 L17.0747335,20.5836772 C17.0747335,20.1462999 17.4835243,19.9876223 17.7068966,19.8800868 C17.9700582,19.7533956 18.2456021,19.9522935 18.3846207,20.1105731 C19.4547113,21.3289299 19.3345608,21.19715 20.3095849,22.2880645 C20.5299066,22.5345737 20.6961506,22.6641218 21.1126025,22.6641218 L21.1126025,22.6641218 L22.3005893,22.6645195 C22.366323,22.6645672 22.4295786,22.6646181 22.4904848,22.6646715 L23.2439916,22.6655845 C23.2846271,22.6656475 23.3235578,22.6657098 23.3609126,22.6657709 L23.9579173,22.6666482 C24.0011337,22.6666724 24.0416557,22.6666737 24.0805146,22.6666469 L24.356884,22.6658421 C24.4308602,22.6654451 24.5084958,22.6648853 24.5980406,22.6641218 C24.7824489,22.6625498 25.0557857,22.3665154 25.1162999,22.2516722 C25.1961819,22.1000748 25.3789991,21.5590905 25.087824,21.2084173 C24.0995601,20.0182135 23.0917788,18.9297947 22.1263407,17.8481658 C22.0527305,17.7656971 21.9973766,17.6525943 21.9953523,17.538828 C21.9931487,17.414418 22.0580447,17.2940565 22.1263407,17.1930984 C23.2091446,15.5924601 24.1035764,14.2366652 25.0764338,12.55304 C25.3926691,12.005763 25.3509917,11.6190266 25.2928502,11.485523 C25.2255195,11.3309213 25.0181959,11.1168916 24.7802858,11.1155313 C23.4811128,11.1077678 22.9199273,11.0890977 21.5340441,11.0912698 L21.3466774,11.0912878 C21.0105416,11.0948076 20.7183314,11.139518 20.5260008,11.5886354 C19.9169104,13.0109385 18.9228526,15.1808975 18.0599963,16.0831235 C17.9006704,16.2496484 17.6875969,16.3732917 17.5018709,16.3742648 C17.3161465,16.3752309 17.1195679,16.2415666 17.0918191,15.9193566 C17.0705692,14.3713936 17.0877916,13.0504776 17.0804288,11.5340466 C17.0781799,11.0705271 16.8950457,10.9514989 16.755805,10.8486521 C16.5669204,10.7091393 16.2680766,10.6655227 16.0382143,10.6666667 Z" id="🔹-Icon-Color-2" fill="#FFFFFF"></path>
            </g>
        </g>
    </g>
</svg>