<?xml version="1.0" encoding="UTF-8"?>
<svg width="32px" height="32px" viewBox="0 0 32 32" version="1.1" xmlns="http://www.w3.org/2000/svg" xmlns:xlink="http://www.w3.org/1999/xlink">
    <title>B374859A-7C4F-4682-9C1B-AE2192AC4705</title>
    <defs>
        <filter id="filter-1">
            <feColorMatrix in="SourceGraphic" type="matrix" values="0 0 0 0 0.847000 0 0 0 0 0.847000 0 0 0 0 0.847000 0 0 0 1.000000 0"></feColorMatrix>
        </filter>
    </defs>
    <g id="Page-1" stroke="none" stroke-width="1" fill="none" fill-rule="evenodd" opacity="0.8">
        <g id="4.-Icons-/-Youtube" transform="translate(-1608.000000, -6129.000000)" filter="url(#filter-1)">
            <g transform="translate(1608.000000, 6129.000000)">
                <path d="M25.2767083,11.2486905 C25.0620417,10.4291071 24.4295917,9.78380952 23.6264583,9.5647619 C22.170575,9.16666667 16.3333333,9.16666667 16.3333333,9.16666667 C16.3333333,9.16666667 10.4960917,9.16666667 9.04020833,9.5647619 C8.23725,9.78380952 7.604625,10.4291071 7.38995833,11.2486905 C7,12.7341071 7,15.8334524 7,15.8334524 C7,15.8334524 7,18.9326786 7.38995833,20.4179762 C7.604625,21.2375595 8.23725,21.8830952 9.04020833,22.1020833 C10.4960917,22.5 16.3333333,22.5 16.3333333,22.5 C16.3333333,22.5 22.170575,22.5 23.6264583,22.1020833 C24.4295917,21.8830952 25.0620417,21.2375595 25.2767083,20.4179762 C25.6666667,18.9326786 25.6666667,15.8334524 25.6666667,15.8334524 C25.6666667,15.8334524 25.6666667,12.7341071 25.2767083,11.2486905 Z M25.3333333,2.66666667 C27.5424723,2.66666667 29.3333333,4.45752767 29.3333333,6.66666667 L29.3333333,25.3333333 C29.3333333,27.5424723 27.5424723,29.3333333 25.3333333,29.3333333 L6.66666667,29.3333333 C4.45752767,29.3333333 2.66666667,27.5424723 2.66666667,25.3333333 L2.66666667,6.66666667 C2.66666667,4.45752767 4.45752767,2.66666667 6.66666667,2.66666667 L25.3333333,2.66666667 Z M13.6666667,13.1666667 L13.6666667,18.5 L19,15.8333333 L13.6666667,13.1666667 Z" id="🔹-Icon-Color-2" fill="#FFFFFF"></path>
            </g>
        </g>
    </g>
</svg>